<svg width="231" height="326" fill="none" xmlns="http://www.w3.org/2000/svg"><g clip-path="url(#a)"><path d="M71.888 2.229H.861v140.515h71.027V2.229Z" fill="#538FF7" stroke="#202124" stroke-width="2.5" stroke-miterlimit="10"/><path d="M157.795 144.973c40.246 0 72.871-32.454 72.871-72.487C230.666 32.453 198.041 0 157.795 0c-40.246 0-72.871 32.453-72.871 72.486s32.625 72.487 72.871 72.487Z" fill="#538FF7"/><path d="M1.35 300.609c32.912-32.578 53.18-53.063 60.806-61.457 7.132-7.417 11.996-13.465 14.593-18.144 2.597-4.678 3.893-10.163 3.89-16.453 0-6.454-2.473-12.058-7.418-16.813-4.944-4.754-11.638-7.134-20.079-7.138-7.779 0-14.062 2.218-18.85 6.653a34.449 34.449 0 0 0-9.847 15.607L.861 193.183c1.62-5.806 4.662-11.533 9.124-17.179 4.462-5.646 10.42-10.408 17.873-14.287 7.457-3.867 16.052-5.802 25.784-5.806 10.536 0 19.86 2.177 27.973 6.532 8.112 4.355 14.395 10.163 18.85 17.424a44.882 44.882 0 0 1 6.681 23.962c0 17.419-8.838 34.92-26.514 52.502L56.59 280.282c-9.085 8.873-15.98 15.731-20.682 20.573l.247.726h72.963v23.705H1.35v-24.677ZM120.326 300.609c32.912-32.578 53.181-53.063 60.807-61.457 7.135-7.417 11.999-13.465 14.592-18.144 2.593-4.678 3.892-10.163 3.895-16.453 0-6.454-2.474-12.058-7.422-16.813-4.949-4.754-11.636-7.134-20.062-7.138-7.783 0-14.066 2.218-18.85 6.653a34.476 34.476 0 0 0-9.853 15.607l-23.595-9.681c1.62-5.806 4.661-11.533 9.123-17.179 4.462-5.646 10.422-10.408 17.879-14.287 7.457-3.867 16.05-5.802 25.778-5.806 10.541 0 19.865 2.177 27.973 6.532 8.109 4.355 14.392 10.163 18.85 17.424a44.875 44.875 0 0 1 6.687 23.951c0 17.419-8.836 34.919-26.508 52.502l-24.106 23.962c-9.081 8.873-15.975 15.731-20.683 20.573l.242.726h72.963v23.705h-107.71v-24.677Z" fill="#EC5E4F" stroke="#202124" stroke-width="2.5" stroke-miterlimit="10"/><path d="M157.795 144.967c40.033 0 72.486-32.282 72.486-72.104 0-39.821-32.453-72.103-72.486-72.103S85.309 33.042 85.309 72.863c0 39.822 32.453 72.104 72.486 72.104Z" fill="#65B867" stroke="#202124" stroke-width="2.5" stroke-linecap="round" stroke-linejoin="round"/><path d="M158.187 1.629s24.87 26.83 24.847 71.355c-.023 44.523-25.669 71.12-25.669 71.12" stroke="#202124" stroke-width="2.5" stroke-linecap="round" stroke-linejoin="round"/><path d="M158.187 1.629s50.948 23.779 50.925 71.526c-.023 47.747-51.747 70.949-51.747 70.949" stroke="#202124" stroke-width="2.5" stroke-linecap="round" stroke-linejoin="round"/><path d="M157.404 1.629s-24.876 26.83-24.847 71.355c.028 44.523 25.663 71.12 25.663 71.12" stroke="#202124" stroke-width="2.5" stroke-linecap="round" stroke-linejoin="round"/><path d="M157.405 1.629s-50.953 23.779-50.925 71.526c.029 47.747 51.741 70.949 51.741 70.949M229.41 73.27l-143.226-.812M158.204 1.629l-.815 142.469" stroke="#202124" stroke-width="2.5" stroke-linecap="round" stroke-linejoin="round"/><path d="M217.498 112.033s-21.171-16.099-59.847-16.413c-38.676-.314-59.973 15.43-59.973 15.43M98.092 33.694s21.171 16.105 59.847 16.419c38.676.314 59.973-15.43 59.973-15.43M124.496 9.784s11.87 15.052 33.655 15.167c21.786.114 33.839-14.807 33.839-14.807M123.602 135.589s12.064-14.927 33.838-14.813c21.774.115 33.655 15.167 33.655 15.167" stroke="#202124" stroke-width="2.5" stroke-linecap="round" stroke-linejoin="round"/></g><defs><clipPath id="a"><path fill="#fff" d="M0 0h231v326H0z"/></clipPath></defs></svg>